# xmcd
#
# Track frame offsets: 
#        150
#        15070
#        29195
#        47174
#        63764
#        84166
#        97796
#        117074
#        133250
#        150088
#        166006
#        178936
#        193099
#        209829
#        222594
#
# Disc length: 3198 seconds
#
# Revision: 1
# Processed by: cddbd v1.5.2PL0 Copyright (c) Steve Scherf et al.
# Submitted via: ExactAudioCopy v1.0b1
#
DISCID=c30c7c0f
DTITLE=Thom Shepherd - Country Squire
DYEAR=2003
DGENRE=Country
TTITLE0=That's What I Tell Myself
TTITLE1=Country Squire
TTITLE2=Confidante
TTITLE3=Life Ain't Fair
TTITLE4=Riding with Private Malone
TTITLE5=Thinking 'Bout You
TTITLE6=It's All In Your Hands
TTITLE7=Melancholy Love Songs
TTITLE8=O'Reilley Luck
TTITLE9=Terri's Back in Town
TTITLE10=Tequila Sheila
TTITLE11=Turned It Around
TTITLE12=Still In Love
TTITLE13=What The Poor People's Doing
TTITLE14=Harley Wells
EXTD=From Stephen City, VA
EXTT0=
EXTT1=
EXTT2=
EXTT3=
EXTT4=
EXTT5=
EXTT6=
EXTT7=
EXTT8=
EXTT9=
EXTT10=
EXTT11=
EXTT12=
EXTT13=
EXTT14=
PLAYORDER=
